<svg width="100" height="100" viewBox="0 0 100 100" fill="none" xmlns="http://www.w3.org/2000/svg">
<g clip-path="url(#clip0_123_85)">
<path d="M50.0002 8.33331C51.6625 8.33321 53.2868 8.83025 54.6644 9.76056C56.042 10.6909 57.1099 12.0119 57.7309 13.5539C58.3518 15.0959 58.4973 16.7884 58.1488 18.4137C57.8003 20.0391 56.9737 21.5231 55.7752 22.675C58.4668 23.8416 60.8835 25.2583 63.0252 26.9125L47.0543 42.8875L46.7085 43.2791C46.0871 44.0809 45.7794 45.0818 45.8433 46.0941C45.9072 47.1065 46.3382 48.0608 47.0554 48.7781C47.7727 49.4953 48.727 49.9263 49.7393 49.9902C50.7517 50.054 51.7526 49.7464 52.5543 49.125L52.946 48.7791L68.8377 32.8916C72.9085 38.5166 75.0002 45.6833 75.0002 54.1666C75.0002 62.1375 70.0918 69.675 62.1293 70.7208L61.296 70.8041L60.4168 70.8333H39.5835C30.7252 70.8333 25.0002 62.8166 25.0002 54.1666C25.0002 38.8333 31.5418 28.1041 44.221 22.6666C43.0251 21.514 42.201 20.0303 41.8543 18.406C41.5077 16.7817 41.6543 15.0908 42.2754 13.5504C42.8964 12.01 43.9637 10.6903 45.3401 9.76076C46.7165 8.83118 48.3393 8.3341 50.0002 8.33331ZM50.0002 20.8333V25ZM75.0002 75H25.0002C23.8951 75 22.8353 75.439 22.0539 76.2204C21.2725 77.0018 20.8335 78.0616 20.8335 79.1666C20.8335 81.3768 21.7115 83.4964 23.2743 85.0592C24.8371 86.622 26.9567 87.5 29.1668 87.5H70.8335C72.8766 87.5005 74.8487 86.7504 76.3751 85.3923C77.9014 84.0342 78.8757 82.1626 79.1127 80.1333L79.1585 79.4083C79.1914 78.8419 79.1083 78.2746 78.9142 77.7414C78.7201 77.2082 78.4192 76.7203 78.0298 76.3076C77.6405 75.8948 77.1709 75.5659 76.6499 75.3411C76.129 75.1162 75.5676 75.0002 75.0002 75Z" fill="white"/>
</g>
<defs>
<clipPath id="clip0_123_85">
<rect width="100" height="100" fill="white"/>
</clipPath>
</defs>
</svg>
