<svg width="100" height="100" viewBox="0 0 100 100" fill="none" xmlns="http://www.w3.org/2000/svg">
<g clip-path="url(#clip0_123_29)">
<path d="M49.9998 8.33331C51.0203 8.33345 52.0053 8.70813 52.768 9.38629C53.5306 10.0645 54.0179 10.9989 54.1373 12.0125L54.1664 12.5V20.8333H62.4998C63.5618 20.8345 64.5832 21.2411 65.3555 21.9702C66.1277 22.6992 66.5924 23.6956 66.6547 24.7558C66.7169 25.816 66.372 26.8599 65.6903 27.6743C65.0087 28.4887 64.0418 29.012 62.9873 29.1375L62.4998 29.1666H54.1664V36.4917C56.6989 34.7976 59.6068 33.7478 62.6373 33.4333L63.6373 33.3583L64.5831 33.3333C67.0454 33.3333 69.4836 33.8183 71.7584 34.7606C74.0333 35.7028 76.1003 37.084 77.8414 38.8251C79.5825 40.5662 80.9636 42.6331 81.9058 44.908C82.8481 47.1829 83.3331 49.621 83.3331 52.0833C83.3285 56.7399 81.5928 61.2286 78.4633 64.6768C75.3339 68.1251 71.0341 70.2867 66.3998 70.7417L65.4956 70.8083L64.5831 70.8333H35.4164C32.4884 70.8333 29.6011 70.1476 26.9857 68.831C24.3704 67.5144 22.0997 65.6036 20.3556 63.2517C18.6116 60.8998 17.4426 58.1721 16.9422 55.2871C16.4419 52.4021 16.6242 49.4401 17.4746 46.6382C18.3249 43.8364 19.8195 41.2726 21.8389 39.1523C23.8582 37.032 26.346 35.4141 29.1031 34.4282C31.8601 33.4423 34.8098 33.1158 37.7157 33.4748C40.6216 33.8339 43.4031 34.8685 45.8373 36.4958L45.8331 29.1666H37.4998C36.4378 29.1655 35.4163 28.7588 34.6441 28.0298C33.8718 27.3007 33.4071 26.3043 33.3449 25.2442C33.2826 24.184 33.6276 23.1401 34.3092 22.3257C34.9908 21.5113 35.9577 20.9879 37.0123 20.8625L37.4998 20.8333H45.8331V12.5C45.8331 11.3949 46.2721 10.3351 47.0535 9.5537C47.8349 8.7723 48.8947 8.33331 49.9998 8.33331ZM74.9998 75H24.9998C23.8947 75 22.8349 75.439 22.0535 76.2204C21.2721 77.0018 20.8331 78.0616 20.8331 79.1667C20.8331 81.3768 21.7111 83.4964 23.2739 85.0592C24.8367 86.622 26.9563 87.5 29.1664 87.5H70.8331C72.8762 87.5005 74.8483 86.7504 76.3747 85.3923C77.901 84.0342 78.8753 82.1626 79.1123 80.1333L79.1581 79.4083C79.191 78.8419 79.1079 78.2746 78.9138 77.7414C78.7197 77.2083 78.4188 76.7203 78.0294 76.3076C77.6401 75.8948 77.1705 75.5659 76.6496 75.3411C76.1286 75.1162 75.5672 75.0002 74.9998 75Z" fill="black"/>
</g>
<defs>
<clipPath id="clip0_123_29">
<rect width="100" height="100" fill="white"/>
</clipPath>
</defs>
</svg>
