<svg width="100" height="100" viewBox="0 0 100 100" fill="none" xmlns="http://www.w3.org/2000/svg">
<g clip-path="url(#clip0_123_89)">
<path d="M37.3293 8.29163L36.7168 8.4083L36.2377 8.52913C35.7111 8.69624 35.223 8.96641 34.8018 9.32391C34.3806 9.68141 34.0346 10.1191 33.7842 10.6115C33.5337 11.104 33.3836 11.6413 33.3427 12.1922C33.3019 12.7432 33.3709 13.2968 33.546 13.8208L36.6668 23.175L24.9377 30.4041C23.0561 31.5625 21.7115 33.4208 21.1997 35.5703C20.688 37.7198 21.0508 39.9846 22.2085 41.8666L22.5793 42.4208C23.3531 43.4783 24.3653 44.3384 25.5337 44.9313C26.7022 45.5242 27.994 45.8333 29.3043 45.8333L35.8168 45.8291L29.0918 65.3041C28.8746 65.9318 28.8106 66.6024 28.9052 67.2598C28.9998 67.9173 29.2501 68.5426 29.6354 69.0836C30.0207 69.6247 30.5298 70.0658 31.1202 70.3701C31.7105 70.6745 32.3651 70.8333 33.0293 70.8333H66.2002C67.2895 70.8336 68.3357 70.4072 69.1145 69.6455C69.8933 68.8838 70.3429 67.8474 70.3668 66.7583L70.8335 45.925C70.8335 29.9791 64.3543 17.2666 51.3752 12.7333L41.3793 9.27496L39.8168 8.7708L38.7418 8.46246L38.1793 8.3333L37.7585 8.27913L37.5293 8.27496L37.3293 8.28746V8.29163ZM75.0002 75H25.0002C23.8951 75 22.8353 75.439 22.0539 76.2204C21.2725 77.0018 20.8335 78.0616 20.8335 79.1666C20.8335 81.3768 21.7115 83.4964 23.2743 85.0592C24.8371 86.622 26.9567 87.5 29.1668 87.5H70.8335C72.8766 87.5005 74.8487 86.7504 76.3751 85.3923C77.9014 84.0341 78.8757 82.1626 79.1127 80.1333L79.1585 79.4083C79.1914 78.8418 79.1083 78.2746 78.9142 77.7414C78.7201 77.2082 78.4192 76.7203 78.0298 76.3076C77.6405 75.8948 77.1709 75.5659 76.65 75.3411C76.129 75.1162 75.5676 75.0001 75.0002 75Z" fill="white"/>
</g>
<defs>
<clipPath id="clip0_123_89">
<rect width="100" height="100" fill="white"/>
</clipPath>
</defs>
</svg>
