<svg width="100" height="100" viewBox="0 0 100 100" fill="none" xmlns="http://www.w3.org/2000/svg">
<g clip-path="url(#clip0_123_105)">
<path d="M50.0002 8.33331C54.4204 8.33331 58.6597 10.0893 61.7853 13.2149C64.9109 16.3405 66.6668 20.5797 66.6668 25C66.6368 27.8749 66.0156 30.7129 64.8418 33.3375L66.6668 33.3333C67.7288 33.3345 68.7503 33.7411 69.5225 34.4702C70.2948 35.1992 70.7595 36.1956 70.8217 37.2558C70.8839 38.316 70.539 39.3599 69.8574 40.1743C69.1758 40.9887 68.2089 41.512 67.1543 41.6375L66.6668 41.6666H61.4043L66.571 65.7916C66.801 66.8577 66.6039 67.9714 66.022 68.8938C65.4401 69.8162 64.5197 70.4736 63.4585 70.725L62.9877 70.8083L62.5002 70.8333H37.5002C36.9202 70.8335 36.3466 70.7126 35.816 70.4784C35.2855 70.2442 34.8096 69.9018 34.419 69.4731C34.0284 69.0444 33.7315 68.5389 33.5475 67.9889C33.3634 67.4389 33.2962 66.8566 33.3502 66.2791L33.4252 65.7916L38.5918 41.6666H33.3335C32.2715 41.6655 31.25 41.2588 30.4778 40.5298C29.7056 39.8007 29.2409 38.8043 29.1786 37.7442C29.1164 36.684 29.4613 35.6401 30.1429 34.8257C30.8246 34.0113 31.7914 33.4879 32.846 33.3625L33.3335 33.3333H35.1585C34.2632 31.3161 33.6841 29.1728 33.4418 26.9791L33.3585 25.9L33.3335 25C33.3335 20.5797 35.0894 16.3405 38.215 13.2149C41.3407 10.0893 45.5799 8.33331 50.0002 8.33331ZM75.0002 75H25.0002C23.8951 75 22.8353 75.439 22.0539 76.2204C21.2725 77.0018 20.8335 78.0616 20.8335 79.1666C20.8335 81.3768 21.7115 83.4964 23.2743 85.0592C24.8371 86.622 26.9567 87.5 29.1668 87.5H70.8335C72.8766 87.5005 74.8487 86.7504 76.3751 85.3923C77.9014 84.0342 78.8757 82.1626 79.1127 80.1333L79.1585 79.4083C79.1914 78.8419 79.1083 78.2746 78.9142 77.7414C78.7201 77.2082 78.4192 76.7203 78.0298 76.3076C77.6405 75.8948 77.1709 75.5659 76.6499 75.3411C76.129 75.1162 75.5676 75.0002 75.0002 75Z" fill="white"/>
</g>
<defs>
<clipPath id="clip0_123_105">
<rect width="100" height="100" fill="white"/>
</clipPath>
</defs>
</svg>
