<svg width="100" height="100" viewBox="0 0 100 100" fill="none" xmlns="http://www.w3.org/2000/svg">
<g clip-path="url(#clip0_123_97)">
<path d="M50.0001 8.33331C51.5636 8.33359 53.0955 8.77374 54.4208 9.60345C55.746 10.4332 56.8111 11.619 57.4943 13.0254C58.1775 14.4317 58.4512 16.0019 58.2843 17.5566C58.1173 19.1112 57.5163 20.5874 56.5501 21.8166L59.8542 30.0791L66.9459 22.9875C66.6181 21.7527 66.5781 20.4592 66.829 19.2066C67.0799 17.954 67.615 16.7757 68.3931 15.7625C69.1713 14.7493 70.1716 13.9282 71.317 13.3626C72.4625 12.797 73.7225 12.5018 75.0001 12.5C76.9651 12.4972 78.8679 13.189 80.3724 14.4531C81.8769 15.7173 82.8863 17.4724 83.2223 19.4085C83.5582 21.3446 83.1992 23.3372 82.2086 25.0343C81.218 26.7314 79.6595 28.0238 77.8084 28.6833L70.7667 67.4125C70.6074 68.2888 70.1714 69.091 69.5228 69.7014C68.8741 70.3118 68.0469 70.6983 67.1626 70.8041L66.6667 70.8333H33.3334C32.4427 70.8338 31.5752 70.5487 30.8583 70.0201C30.1414 69.4914 29.6128 68.7469 29.3501 67.8958L29.2334 67.4125L22.1917 28.6833C20.6679 28.1373 19.3362 27.1593 18.3591 25.8689C17.382 24.5784 16.8018 23.0313 16.6895 21.4166C16.5772 19.8018 16.9376 18.1893 17.7267 16.776C18.5158 15.3627 19.6993 14.2098 21.1329 13.4581C22.5664 12.7065 24.1878 12.3885 25.7991 12.5432C27.4103 12.6979 28.9416 13.3184 30.206 14.3291C31.4703 15.3398 32.413 16.6968 32.9188 18.2344C33.4246 19.772 33.4717 21.4236 33.0542 22.9875L40.1417 30.0791L43.4501 21.8166C42.4838 20.5874 41.8828 19.1112 41.7159 17.5566C41.5489 16.0019 41.8227 14.4317 42.5059 13.0254C43.1891 11.619 44.2541 10.4332 45.5794 9.60345C46.9046 8.77374 48.4365 8.33359 50.0001 8.33331ZM75.0001 75H25.0001C23.895 75 22.8352 75.439 22.0538 76.2204C21.2724 77.0018 20.8334 78.0616 20.8334 79.1666C20.8334 81.3768 21.7114 83.4964 23.2742 85.0592C24.837 86.622 26.9566 87.5 29.1667 87.5H70.8334C72.8765 87.5005 74.8486 86.7504 76.375 85.3923C77.9013 84.0342 78.8756 82.1626 79.1126 80.1333L79.1584 79.4083C79.1913 78.8419 79.1082 78.2746 78.9141 77.7414C78.72 77.2082 78.4191 76.7203 78.0297 76.3076C77.6404 75.8948 77.1708 75.5659 76.6498 75.3411C76.1289 75.1162 75.5675 75.0002 75.0001 75Z" fill="white"/>
</g>
<defs>
<clipPath id="clip0_123_97">
<rect width="100" height="100" fill="white"/>
</clipPath>
</defs>
</svg>
