<svg width="100" height="100" viewBox="0 0 100 100" fill="none" xmlns="http://www.w3.org/2000/svg">
<g clip-path="url(#clip0_123_101)">
<path d="M58.3335 12.5C59.3541 12.5001 60.3391 12.8748 61.1017 13.553C61.8644 14.2311 62.3516 15.1656 62.471 16.1791L62.5002 16.6666V25H69.3835L70.8918 15.9833C71.0582 14.9756 71.5889 14.064 72.3832 13.4218C73.1774 12.7797 74.1799 12.4516 75.2002 12.5L75.6835 12.5541C76.692 12.7206 77.6041 13.2519 78.2464 14.0471C78.8887 14.8422 79.2162 15.8457 79.1668 16.8666L79.1127 17.35L77.0293 29.85C76.8821 30.7377 76.4515 31.5539 75.8018 32.1766C75.1521 32.7992 74.3183 33.1948 73.4252 33.3041L72.9168 33.3333H67.1543L70.8085 66.2083C70.9293 67.3016 70.613 68.3983 69.9284 69.2592C69.2439 70.1202 68.2467 70.6755 67.1543 70.8041L66.6668 70.8333H33.3335C32.2335 70.8333 31.1781 70.3984 30.3975 69.6233C29.6169 68.8481 29.1745 67.7958 29.1668 66.6958L29.1918 66.2083L32.846 33.3333H27.0835C26.183 33.3338 25.3066 33.0426 24.5855 32.5033C23.8644 31.964 23.3374 31.2056 23.0835 30.3416L22.9752 29.85L20.8918 17.35C20.7179 16.3016 20.9511 15.2265 21.5437 14.3444C22.1363 13.4623 23.0436 12.84 24.0799 12.6048C25.1162 12.3695 26.2032 12.5391 27.1186 13.0788C28.034 13.6186 28.7086 14.4876 29.0043 15.5083L29.1085 15.9833L30.6127 25H37.5002V16.6666C37.5013 15.6046 37.908 14.5832 38.637 13.8109C39.3661 13.0387 40.3625 12.574 41.4226 12.5118C42.4828 12.4495 43.5267 12.7945 44.3411 13.4761C45.1555 14.1577 45.6789 15.1246 45.8043 16.1791L45.8335 16.6666V25H54.1668V16.6666C54.1668 15.5616 54.6058 14.5018 55.3872 13.7204C56.1686 12.939 57.2284 12.5 58.3335 12.5ZM75.0002 75H25.0002C23.8951 75 22.8353 75.439 22.0539 76.2204C21.2725 77.0018 20.8335 78.0616 20.8335 79.1667C20.8335 81.3768 21.7115 83.4964 23.2743 85.0592C24.8371 86.622 26.9567 87.5 29.1668 87.5H70.8335C72.8766 87.5005 74.8487 86.7504 76.3751 85.3923C77.9014 84.0342 78.8757 82.1626 79.1127 80.1333L79.1585 79.4083C79.1914 78.8419 79.1083 78.2746 78.9142 77.7414C78.7201 77.2083 78.4192 76.7203 78.0298 76.3076C77.6405 75.8948 77.1709 75.5659 76.6499 75.3411C76.129 75.1162 75.5676 75.0002 75.0002 75Z" fill="white"/>
</g>
<defs>
<clipPath id="clip0_123_101">
<rect width="100" height="100" fill="white"/>
</clipPath>
</defs>
</svg>
